<?xml version="1.0" encoding="UTF-8" standalone="no"?>
<!-- Created with Inkscape (http://www.inkscape.org/) -->

<svg
   width="125.88297mm"
   height="125.88297mm"
   viewBox="0 0 125.88297 125.88296"
   version="1.1"
   id="svg1"
   xml:space="preserve"
   sodipodi:docname="favicon.svg"
   inkscape:export-filename="favicon.svg"
   inkscape:export-xdpi="96"
   inkscape:export-ydpi="96"
   xmlns:inkscape="http://www.inkscape.org/namespaces/inkscape"
   xmlns:sodipodi="http://sodipodi.sourceforge.net/DTD/sodipodi-0.dtd"
   xmlns="http://www.w3.org/2000/svg"
   xmlns:svg="http://www.w3.org/2000/svg"><sodipodi:namedview
     id="namedview1"
     pagecolor="#ffffff"
     bordercolor="#000000"
     borderopacity="0.25"
     inkscape:showpageshadow="2"
     inkscape:pageopacity="0.0"
     inkscape:pagecheckerboard="0"
     inkscape:deskcolor="#d1d1d1"
     inkscape:document-units="mm"><inkscape:page
       x="0"
       y="0"
       width="125.88297"
       height="125.88296"
       id="page2"
       margin="0"
       bleed="0" /></sodipodi:namedview><defs
     id="defs1"><linearGradient
       id="gradient_0-8"
       gradientUnits="userSpaceOnUse"
       x1="305.30511"
       y1="295.05405"
       x2="795.64374"
       y2="443.0416"
       gradientTransform="matrix(0.26458333,0,0,0.26458333,-111.65416,-11.112498)"><stop
         offset="0"
         stop-color="#111011"
         id="stop1" /><stop
         offset="1"
         stop-color="#2B2C33"
         id="stop2" /></linearGradient><linearGradient
       id="gradient_1-5"
       gradientUnits="userSpaceOnUse"
       x1="495.68347"
       y1="455.38367"
       x2="481.02274"
       y2="453.74539"
       gradientTransform="matrix(0.26458333,0,0,0.26458333,-111.65416,-11.112498)"><stop
         offset="0"
         stop-color="#262626"
         id="stop8" /><stop
         offset="1"
         stop-color="#1a1a1a"
         id="stop9" /></linearGradient></defs><g
     id="layer1"
     transform="translate(30.7717,-29.006228)"><path
       fill="url(#gradient_0)"
       d="m -14.570599,29.032201 c 3.773223,-0.06853 7.8414564,0.01984 11.645371,0.02752 l 23.174854,0.02355 17.904089,-0.0021 c 3.141663,-0.0069 6.484938,-0.117475 9.599083,-0.01931 1.184275,1.475316 3.633523,3.882496 5.014119,5.33056 3.276071,3.42265 6.520656,6.875727 9.732698,10.358967 l 0.0463,59.636032 c 2.840302,3.60283 4.895585,5.82718 5.883804,10.70186 1.132152,5.58509 0.03228,10.85797 -3.037681,15.58687 1.150408,0.99139 2.432579,2.25081 3.552825,3.30518 0.153987,-0.0995 0.310356,-0.195 0.469371,-0.28602 0.36777,-0.20717 0.73025,-0.322 1.14882,-0.17118 1.102255,0.39766 11.519429,10.65133 12.947915,12.22957 0.65696,0.72575 1.519767,1.68883 1.901296,2.59609 0.445293,1.0586 0.385233,2.41432 -0.04498,3.46419 -0.515144,1.2565 -1.550459,2.14974 -2.786328,2.6707 -1.492779,0.62918 -2.824162,0.47334 -4.278841,-0.11774 -2.791619,-1.55495 -6.638925,-6.58574 -9.266238,-8.82756 -1.516327,-1.29381 -3.127904,-3.20992 -4.589991,-4.61883 -0.858308,-0.82735 -0.356923,-1.70338 0.207962,-2.51169 -0.949325,-1.04484 -2.277268,-2.28176 -3.310731,-3.29327 -9.178131,7.57291 -21.409025,6.46589 -29.245718,-2.42596 l -33.2996644,0.002 -10.3420336,0.019 c -1.554162,0.003 -4.192587,0.0807 -5.643297,-0.0699 -0.881857,-0.0865 -1.71794,-0.43312 -2.401888,-0.99642 -2.225146,-1.80155 -1.704181,-5.46682 -1.697831,-8.09519 l 0.01138,-7.74409 0.05159,-26.773192 -0.068,-35.344893 -0.0172,-11.238177 c -0.0074,-5.852054 -1.219465,-12.877535 6.738937,-13.417021 z"
       id="path2"
       style="fill:url(#gradient_0-8);stroke-width:0.264583" /><path
       fill="#ffffff"
       d="m -14.178751,29.954274 c 7.1548626,-0.07938 14.39968334,7.94e-4 21.5593083,0.01138 l 39.6718887,0.04233 c 0.04657,3.6449 -0.923131,10.803996 1.716617,13.703829 1.691481,1.858169 5.62266,1.669256 8.012112,1.672166 l 4.767527,-0.0011 c 0.20029,6.784975 0.05874,13.902531 0.05159,20.709731 l -0.05874,37.52083 c -4.888442,-3.623207 -8.710084,-5.427137 -15.019338,-4.997982 -6.133306,0.417248 -10.78521,3.074462 -14.749991,7.719482 -2.203979,2.67362 -3.668183,5.87825 -4.246827,9.29455 -0.921544,5.67743 0.4445,11.48847 3.798887,16.16075 l -31.83704723,-0.009 -10.58359777,0.0235 c -3.346185,0.008 -9.036579,0.9869 -9.230783,-3.8092 -0.07594,-1.8751 -0.04974,-3.75127 -0.04789,-5.62848 l 0.01297,-10.19228 -0.0021,-30.838516 -0.01826,-29.7307 c -0.0045,-5.273674 -0.08837,-10.562695 0.09842,-15.830814 0.139171,-3.923771 2.371196,-5.589323 6.10526,-5.820569 z"
       id="path3"
       style="stroke-width:0.264583" /><path
       fill="#212229"
       d="m 26.853097,50.172145 c 3.903662,-0.09737 7.902839,0.0056 11.831108,-0.02275 2.466181,0.124883 5.310716,-0.243417 7.7343,0.175419 2.825485,0.746654 2.588418,3.649133 2.526506,5.69251 -0.170392,5.641446 1.482196,9.237133 -6.051815,8.954558 -1.599935,-0.06006 -4.249208,-0.01111 -5.99096,-0.01958 l -0.0074,10.614289 c 3.193785,-0.02593 7.435056,-0.573352 10.414264,0.484188 1.626394,0.862012 1.845469,4.0005 1.704181,5.494073 -0.339195,3.587221 1.285875,7.844102 -3.259666,8.802423 l -11.735594,0.02222 C 29.411096,90.404945 23.7887,92.06812 23.526498,85.542701 23.04919,73.675609 24.791736,75.473718 35.86349,75.560236 c -0.04075,-3.516577 -0.01164,-7.089245 -0.01455,-10.61032 -1.841236,0.01508 -9.866842,0.32676 -10.9601,-0.747977 -1.984904,-1.950773 -1.692275,-10.237259 -0.509852,-12.802129 0.332581,-0.721519 1.729052,-1.079236 2.474119,-1.227667 z"
       id="path4"
       style="stroke-width:0.264583" /><path
       fill="#d4d4d4"
       d="m 26.417857,76.615661 c 2.629958,-0.08863 19.031479,-0.28575 20.194058,0.23204 0.451644,0.201083 0.881856,0.751946 1.062831,1.200414 0.559065,1.384565 0.599546,8.542602 0.02884,9.827419 -0.346604,0.779727 -0.931863,1.15861 -1.698096,1.469231 -2.718064,0.242888 -6.379104,0.04419 -8.992394,0.01905 -12.052829,-0.115887 -13.732933,2.392627 -12.214224,-11.206427 0.07832,-0.703527 1.05066,-1.280318 1.618985,-1.541727 z"
       id="path5"
       style="stroke-width:0.264583" /><path
       fill="#d4d4d4"
       d="m 30.875557,51.133641 c 3.360208,-0.06059 6.72121,-0.06271 10.081419,-0.0063 1.399381,0.01879 4.936595,-0.203465 6.007893,0.579173 0.792692,0.579173 1.140884,3.011223 1.08294,4.092575 -0.123296,2.298435 0.545306,5.699654 -1.08294,7.593012 -0.769143,0.779463 -3.99071,0.547158 -5.150114,0.537104 l -9.419696,0.01376 c -7.363354,0.01482 -8.215048,0.944562 -7.918979,-7.35039 0.07911,-2.211917 -0.389731,-4.023783 1.820862,-5.3721 1.459971,-0.06985 3.104886,-0.06323 4.578615,-0.08678 z"
       id="path6"
       style="stroke-width:0.264583" /><path
       fill="#212229"
       d="m 14.964838,101.12957 c 4.400286,-0.58764 8.452909,2.47862 9.083675,6.87308 0.630767,4.39447 -2.395802,8.47672 -6.783916,9.15035 -4.449234,0.68289 -8.6008106,-2.39501 -9.2403085,-6.85059 -0.6394979,-4.45558 2.4788815,-8.577 6.9405495,-9.17284 z"
       id="path7"
       style="stroke-width:0.264583" /><path
       fill="#171717"
       d="m 15.050034,102.16198 c 3.889904,-0.56568 7.496704,2.14312 8.037777,6.03646 0.541073,3.89361 -2.190485,7.48321 -6.087268,7.99942 -3.861859,0.5117 -7.412567,-2.19022 -7.9488774,-6.04864 -0.5360459,-3.85869 2.1431254,-7.42633 5.9983684,-7.98724 z"
       id="path8"
       style="stroke-width:0.264583" /><path
       fill="url(#gradient_1)"
       d="m 12.85267,105.85503 c 0.459052,-1.26365 1.815041,-1.1602 2.683404,-0.36486 0.06138,0.20849 0.121708,0.41725 0.180975,0.62627 l 1.41605,-0.96335 c 0.621506,0.0481 1.693862,0.0741 2.232289,0.29157 0.510911,0.82259 0.459582,7.1247 -0.486833,7.81315 -0.593725,0.12541 -1.138767,-0.0577 -1.7399,-0.19976 -0.376767,-0.52917 -0.68289,-1.10437 -1.339321,-1.22661 -0.203464,0.68262 -0.188912,0.98875 -0.887677,1.26603 -1.373187,0.28601 -1.459706,0.0759 -2.202127,-1.04696 -0.05027,-0.94615 -0.214048,-5.55651 0.14314,-6.19548 z"
       id="path9"
       style="fill:url(#gradient_1-5);stroke-width:0.264583" /><path
       fill="#ffffff"
       d="m 12.85267,105.85503 c 0.459052,-1.26365 1.815041,-1.1602 2.683404,-0.36486 0.06138,0.20849 0.121708,0.41725 0.180975,0.62627 0.106362,1.87166 -0.04763,3.92059 0.08229,5.715 -0.203464,0.68262 -0.188912,0.98875 -0.887677,1.26603 -1.373187,0.28601 -1.459706,0.0759 -2.202127,-1.04696 -0.05027,-0.94615 -0.214048,-5.55651 0.14314,-6.19548 z"
       id="path10"
       style="stroke-width:0.264583" /><path
       fill="#404040"
       d="m 12.85267,105.85503 c 0.459052,-1.26365 1.815041,-1.1602 2.683404,-0.36486 0.06138,0.20849 0.121708,0.41725 0.180975,0.62627 0.106362,1.87166 -0.04763,3.92059 0.08229,5.715 -0.203464,0.68262 -0.188912,0.98875 -0.887677,1.26603 0.428625,-0.8345 0.443706,-0.88292 0.0926,-1.77165 -0.169598,-0.80142 -0.05239,-4.0222 -0.01667,-4.95141 -0.162719,-0.21273 -0.172244,-0.19685 -0.383117,-0.37068 -0.495036,-0.12171 -0.58129,-0.0651 -1.063625,0.0701 l -0.444765,-0.20532 z"
       id="path11"
       style="stroke-width:0.264583" /><path
       fill="#1b1f35"
       d="m 13.096086,105.86852 c 0.63553,-0.9017 1.216554,-0.6805 2.214298,-0.52969 l -0.09234,1.20226 -0.112184,0.0905 -0.118268,-0.25717 c -0.162719,-0.21273 -0.172244,-0.19685 -0.383117,-0.37068 -0.495036,-0.12171 -0.58129,-0.0651 -1.063625,0.0701 z"
       id="path12"
       style="stroke-width:0.264583" /><path
       fill="#212229"
       d="m 12.85267,105.85503 0.243416,0.0135 0.444765,0.20532 c -0.214577,1.47479 -0.491331,5.02761 0.29554,6.24443 0.430741,0.2503 0.20611,0.21564 0.697177,0.10001 0.434181,-0.3929 0.411427,-0.34501 0.470693,-1.09246 0.351102,0.88873 0.336021,0.93715 -0.0926,1.77165 -1.373187,0.28601 -1.459706,0.0759 -2.202127,-1.04696 -0.05027,-0.94615 -0.214048,-5.55651 0.14314,-6.19548 z"
       id="path13"
       style="stroke-width:0.264583" /><path
       fill="#ffffff"
       d="m 17.530238,105.82963 c 0.332846,-0.0161 1.142207,-0.11086 1.215761,0.30083 0.276225,1.54464 0.337344,4.94136 -0.100013,6.35132 -0.3683,-0.009 -0.759618,-0.05 -0.975518,-0.36512 -0.713317,-1.04167 -0.342636,-5.11757 -0.14023,-6.28703 z"
       id="path14"
       style="stroke-width:0.264583" /><path
       fill="#352524"
       d="m -6.5590155,101.12931 c 4.3968458,-0.5932 8.4478812,2.47412 9.069652,6.86699 0.6215062,4.39314 -2.41987916,8.46402 -6.8085229,9.11358 -4.4291249,0.6559 -8.5452476,-2.41935 -9.1725746,-6.85245 -0.627327,-4.43309 2.474383,-8.52937 6.9114455,-9.12812 z"
       id="path15"
       style="stroke-width:0.264583" /><path
       fill="#ec3737"
       d="m -6.6267488,102.19267 c 2.4926395,-0.42122 5.0196749,0.52916 6.61696448,2.4884 1.59755412,1.95951 2.01930002,4.62598 1.10463542,6.98262 -0.91466459,2.35691 -3.0249812,4.04045 -5.5260875,4.40928 -3.8105291,0.56145 -7.3630896,-2.04946 -7.9650166,-5.8539 -0.601662,-3.80445 1.97141,-7.38452 5.7695042,-8.0264 z"
       id="path16"
       style="stroke-width:0.264583" /><path
       fill="#352524"
       d="m -7.252753,104.57709 c 1.2681479,0.0931 7.29667909,3.3356 7.14930618,4.68445 -0.61938958,0.84905 -2.03464578,1.67772 -2.95460208,2.27515 -0.9202208,0.62415 -3.062552,2.30505 -4.1095082,2.07354 -1.1662834,-1.11601 -1.1435292,-7.76287 -0.085196,-9.03314 z"
       id="path17"
       style="stroke-width:0.264583" /><path
       fill="#ffffff"
       d="m -6.9103822,105.70395 c 0.8958792,0.31353 4.7365708,2.61541 5.7893479,3.23083 -0.6053667,0.50244 -1.6965083,1.17607 -2.3876,1.62957 -1.02235,0.73316 -2.281502,1.51527 -3.3461854,2.2143 -0.086254,-2.31961 -0.053975,-4.74557 -0.055562,-7.0747 z"
       id="path18"
       style="stroke-width:0.264583" /><path
       fill="#212229"
       d="m -11.537151,51.74086 c 2.3002876,-0.05054 23.875471,-0.114036 24.316002,0.130968 0.156633,0.334698 0.07647,0.502444 -0.0011,0.868363 l -16.7417752,-0.03202 c -1.3356166,0.0011 -6.3317438,0.116417 -7.3924578,-0.05106 -0.235215,-0.3302 -0.155575,-0.432065 -0.180711,-0.916252 z"
       id="path19"
       style="stroke-width:0.264583" /><path
       fill="#212229"
       d="m -11.538474,60.369716 15.4588105,-0.01693 c 1.2102041,-5.29e-4 8.2243085,-0.191823 8.7865475,0.3429 0.0254,0.416455 0.06535,0.217488 -0.171714,0.604573 -3.969544,0.223044 -9.5395523,0.0058 -13.6728731,0.01164 l -6.3616415,0.02011 c -1.0276417,0.0037 -2.9117394,0.06959 -3.8409564,-0.114564 -0.262731,-0.354277 -0.174625,-0.311679 -0.198173,-0.847725 z"
       id="path20"
       style="stroke-width:0.264583" /><path
       fill="#212229"
       d="m -11.164088,78.112938 c 2.8823704,-0.06297 22.816608,-0.189177 23.785512,0.17198 0.287073,0.36777 0.229923,0.165893 0.186531,0.622829 l -0.246062,0.201877 c -5.5162982,0.02328 -11.0328607,-0.0098 -16.5486294,-0.09948 -2.2219708,-0.02223 -4.580202,0.04868 -6.8024376,-0.07885 -0.496887,-0.02858 -0.565944,-0.110067 -0.801158,-0.403755 0.168804,-0.377825 0.03545,-0.239977 0.426244,-0.414602 z"
       id="path21"
       style="stroke-width:0.264583" /><path
       fill="#212229"
       d="m -11.650922,69.340678 c 1.259682,-0.119062 3.1363711,-0.04604 4.4645794,-0.03942 l 7.26281244,0.01932 7.78562906,-0.0127 c 1.4512396,-0.0037 3.2937981,-0.06112 4.6905331,0.05927 0.344752,0.264055 0.248973,0.302948 0.37809,0.856986 -4.9156939,0.160602 -10.2496939,-0.03784 -15.2193625,0.02672 -1.7584209,0.02275 -7.2924458,0.110331 -8.8529585,-0.07303 -0.432858,-0.306123 -0.299244,-0.224632 -0.509323,-0.837142 z"
       id="path22"
       style="stroke-width:0.264583" /><path
       fill="#171717"
       d="m 46.14863,99.582024 c 10.901627,-1.033992 20.572677,6.977066 21.585766,17.880806 1.01309,10.90374 -7.016485,20.55945 -17.922081,21.55163 -10.876227,0.98928 -20.500181,-7.01383 -21.51036,-17.88795 -1.010444,-10.87437 6.974416,-20.51341 17.846675,-21.544486 z"
       id="path23"
       style="stroke-width:0.264583" /><path
       fill="#212229"
       d="m 45.940932,103.50923 c 8.775435,-1.15199 16.814535,5.0509 17.92605,13.83163 1.111514,8.78046 -5.128155,16.79098 -13.913644,17.86228 -8.728869,1.06442 -16.676423,-5.1263 -17.780794,-13.84988 -1.10437,-8.72384 5.049838,-16.6997 13.768388,-17.84403 z"
       id="path24"
       style="stroke-width:0.264583" /><path
       fill="#ffffff"
       d="m 46.039092,104.453 c 8.221398,-1.0787 15.758319,4.71832 16.825383,12.94104 1.067329,8.22298 -4.74001,15.7517 -12.964318,16.80739 -8.208169,1.05383 -15.718896,-4.73948 -16.784108,-12.94633 -1.065213,-8.20658 4.717785,-15.72551 12.923043,-16.8021 z"
       id="path25"
       style="stroke-width:0.264583" /><path
       fill="#352524"
       d="m 46.720923,109.85474 c 5.180277,-0.70221 9.9568,2.90724 10.695517,8.08249 0.738452,5.17525 -2.837392,9.97691 -8.00735,10.75187 -5.221552,0.78264 -10.081419,-2.8366 -10.827544,-8.06344 -0.74586,-5.22711 2.907507,-10.06158 8.139377,-10.77092 z"
       id="path26"
       style="stroke-width:0.264583" /><path
       fill="#ec3737"
       d="m 46.655571,110.92339 c 4.642379,-0.75301 9.010915,2.41511 9.737461,7.06146 0.726545,4.64661 -2.466711,8.99716 -7.117292,9.69698 -4.61301,0.694 -8.920691,-2.46777 -9.641152,-7.07654 -0.720725,-4.60905 2.416175,-8.93472 7.020983,-9.6819 z"
       id="path27"
       style="stroke-width:0.264583" /><path
       fill="#ffffff"
       d="m 70.185231,134.36468 c 1.489869,0.92128 6.6167,6.35661 8.121915,7.74515 1.611312,1.6457 3.350948,3.1697 4.944004,4.83102 0.239977,0.32967 0.954617,1.00515 1.072885,1.36869 1.246717,3.83461 -1.380066,5.70468 -4.726781,5.48693 -1.984639,-0.8218 -4.018491,-3.21151 -5.550429,-4.77732 -2.968889,-3.03424 -6.388629,-5.9764 -9.194006,-9.14029 1.731698,-1.88198 3.509433,-3.72057 5.332412,-5.51418 z"
       id="path28"
       style="stroke-width:0.264583" /><path
       fill="#ffffff"
       d="M 48.03749,31.021074 C 49.12625,31.65581 59.581525,42.895839 60.649384,44.325912 47.194792,45.062512 47.852282,43.52978 48.03749,31.021074 Z"
       id="path29"
       style="stroke-width:0.264583" /><path
       fill="#171717"
       d="m 64.681634,131.71011 c 0.54266,0.18733 2.651918,2.3331 3.598068,2.9845 l -2.722033,2.78501 -0.08149,0.0238 c -0.672835,-0.22728 -2.756429,-2.46512 -3.318668,-3.08716 0.729985,-0.84878 1.741487,-1.84414 2.524125,-2.70616 z"
       id="path30"
       style="stroke-width:0.264583" /></g></svg>
