<svg xmlns="http://www.w3.org/2000/svg" xml:space="preserve" width="475.778" height="475.778" viewBox="0 0 125.883 125.883"><defs><linearGradient id="a" x1="305.305" x2="795.644" y1="295.054" y2="443.042" gradientTransform="translate(-111.654 -11.112)scale(.26458)" gradientUnits="userSpaceOnUse"><stop offset="0" stop-color="#111011"/><stop offset="1" stop-color="#2b2c33"/></linearGradient><linearGradient id="b" x1="495.683" x2="481.023" y1="455.384" y2="453.745" gradientTransform="translate(-111.654 -11.112)scale(.26458)" gradientUnits="userSpaceOnUse"><stop offset="0" stop-color="#262626"/><stop offset="1" stop-color="#1a1a1a"/></linearGradient></defs><path fill="url(#gradient_0)" d="M-14.57 29.032c3.773-.068 7.84.02 11.645.028l23.175.023 17.904-.002c3.141-.007 6.485-.117 9.599-.02 1.184 1.476 3.633 3.883 5.014 5.331a764 764 0 0 1 9.733 10.36l.046 59.635c2.84 3.603 4.896 5.828 5.884 10.702 1.132 5.585.032 10.858-3.038 15.587 1.15.992 2.433 2.251 3.553 3.305q.23-.15.47-.286c.367-.207.73-.322 1.148-.17 1.102.397 11.52 10.65 12.948 12.229.657.725 1.52 1.689 1.901 2.596.446 1.058.385 2.414-.045 3.464-.515 1.256-1.55 2.15-2.786 2.67-1.493.63-2.824.474-4.279-.117-2.792-1.555-6.639-6.586-9.266-8.828-1.516-1.293-3.128-3.21-4.59-4.618-.858-.828-.357-1.704.208-2.512-.95-1.045-2.277-2.282-3.31-3.293-9.179 7.572-21.41 6.465-29.247-2.426l-33.3.002-10.341.019c-1.554.003-4.193.08-5.644-.07a4.46 4.46 0 0 1-2.401-.997c-2.226-1.801-1.705-5.467-1.698-8.095l.011-7.744.052-26.773-.068-35.345-.018-11.238c-.007-5.852-1.219-12.878 6.74-13.417z" style="fill:url(#a);stroke-width:.264583" transform="translate(30.772 -29.006)"/><path fill="#fff" d="M-14.179 29.954c7.155-.08 14.4.001 21.56.012l39.671.042c.047 3.645-.923 10.804 1.717 13.704 1.692 1.858 5.623 1.67 8.012 1.672l4.768-.001c.2 6.785.058 13.902.051 20.71l-.058 37.52c-4.889-3.623-8.71-5.427-15.02-4.998-6.133.418-10.785 3.075-14.75 7.72a19.8 19.8 0 0 0-4.247 9.294 21.74 21.74 0 0 0 3.8 16.161l-31.838-.009-10.583.024c-3.347.008-9.037.987-9.231-3.81-.076-1.875-.05-3.75-.048-5.628l.013-10.192-.002-30.839-.018-29.73c-.005-5.274-.089-10.563.098-15.831.14-3.924 2.371-5.59 6.105-5.82" style="stroke-width:.264583" transform="translate(30.772 -29.006)"/><path fill="#212229" d="M26.853 50.172c3.904-.097 7.903.006 11.831-.023 2.466.125 5.31-.243 7.735.176 2.825.746 2.588 3.649 2.526 5.692-.17 5.642 1.482 9.237-6.052 8.955-1.6-.06-4.249-.011-5.99-.02l-.008 10.615c3.194-.026 7.435-.574 10.414.484 1.626.862 1.846 4 1.704 5.494-.339 3.587 1.286 7.844-3.26 8.802l-11.735.022c-4.607.036-10.23 1.7-10.492-4.826-.477-11.867 1.266-10.07 12.337-9.983-.04-3.516-.011-7.089-.014-10.61-1.841.015-9.867.327-10.96-.748-1.985-1.95-1.692-10.237-.51-12.802.333-.722 1.729-1.08 2.474-1.228" style="stroke-width:.264583" transform="translate(30.772 -29.006)"/><path fill="#d4d4d4" d="M26.418 76.616c2.63-.089 19.031-.286 20.194.232.452.2.882.752 1.063 1.2.559 1.385.6 8.543.029 9.828-.347.78-.932 1.158-1.699 1.469-2.718.243-6.379.044-8.992.019C24.96 89.248 23.28 91.756 24.8 78.157c.078-.703 1.05-1.28 1.619-1.541M30.876 51.134q5.04-.09 10.081-.007c1.4.02 4.937-.203 6.008.58.793.579 1.14 3.01 1.083 4.092-.123 2.299.545 5.7-1.083 7.593-.77.78-3.99.547-5.15.537l-9.42.014c-7.363.015-8.215.945-7.919-7.35.08-2.212-.39-4.024 1.82-5.373 1.46-.07 3.106-.063 4.58-.086" style="stroke-width:.264583" transform="translate(30.772 -29.006)"/><path fill="#212229" d="M14.965 101.13a8.094 8.094 0 1 1 2.143 16.046 8.094 8.094 0 0 1-2.143-16.046" style="stroke-width:.264583" transform="translate(30.772 -29.006)"/><path fill="#171717" d="M15.05 102.162a7.085 7.085 0 1 1 2.04 14.023 7.085 7.085 0 0 1-2.04-14.023" style="stroke-width:.264583" transform="translate(30.772 -29.006)"/><path fill="url(#gradient_1)" d="M12.853 105.855c.459-1.264 1.815-1.16 2.683-.365q.092.313.181.626l1.416-.963c.622.048 1.694.074 2.232.292.511.822.46 7.124-.486 7.813-.594.125-1.14-.058-1.74-.2-.377-.53-.683-1.104-1.34-1.227-.203.683-.189.99-.887 1.266-1.374.286-1.46.076-2.202-1.046-.05-.947-.215-5.557.143-6.196" style="fill:url(#b);stroke-width:.264583" transform="translate(30.772 -29.006)"/><path fill="#fff" d="M12.853 105.855c.459-1.264 1.815-1.16 2.683-.365q.092.313.181.626c.106 1.872-.048 3.921.082 5.715-.203.683-.189.99-.887 1.266-1.374.286-1.46.076-2.202-1.046-.05-.947-.215-5.557.143-6.196" style="stroke-width:.264583" transform="translate(30.772 -29.006)"/><path fill="#404040" d="M12.853 105.855c.459-1.264 1.815-1.16 2.683-.365q.092.313.181.626c.106 1.872-.048 3.921.082 5.715-.203.683-.189.99-.887 1.266.428-.834.443-.882.092-1.771-.17-.802-.052-4.022-.016-4.952-.163-.212-.173-.196-.384-.37-.495-.122-.58-.065-1.063.07l-.445-.205z" style="stroke-width:.264583" transform="translate(30.772 -29.006)"/><path fill="#1b1f35" d="M13.096 105.869c.636-.902 1.217-.681 2.214-.53l-.092 1.202-.112.09-.118-.257c-.163-.212-.173-.196-.384-.37-.495-.122-.58-.065-1.063.07z" style="stroke-width:.264583" transform="translate(30.772 -29.006)"/><path fill="#212229" d="m12.853 105.855.243.014.445.205c-.215 1.475-.491 5.027.295 6.244.431.25.207.216.698.1.434-.393.411-.345.47-1.092.351.889.336.937-.092 1.771-1.374.286-1.46.076-2.202-1.046-.05-.947-.215-5.557.143-6.196" style="stroke-width:.264583" transform="translate(30.772 -29.006)"/><path fill="#fff" d="M17.53 105.83c.333-.016 1.142-.111 1.216.3.276 1.545.337 4.942-.1 6.352-.368-.01-.76-.05-.976-.365-.713-1.042-.342-5.118-.14-6.287" style="stroke-width:.264583" transform="translate(30.772 -29.006)"/><path fill="#352524" d="M-6.559 101.13a8.07 8.07 0 1 1 2.158 15.995A8.07 8.07 0 0 1-6.56 101.13" style="stroke-width:.264583" transform="translate(30.772 -29.006)"/><path fill="#ec3737" d="M-6.627 102.193a7.027 7.027 0 1 1 2.342 13.857 7.027 7.027 0 0 1-2.342-13.857" style="stroke-width:.264583" transform="translate(30.772 -29.006)"/><path fill="#352524" d="M-7.253 104.577c1.268.093 7.297 3.336 7.15 4.685-.62.849-2.035 1.677-2.955 2.275-.92.624-3.063 2.305-4.11 2.073-1.166-1.116-1.143-7.763-.085-9.033" style="stroke-width:.264583" transform="translate(30.772 -29.006)"/><path fill="#fff" d="M-6.91 105.704c.895.313 4.736 2.615 5.789 3.23-.605.503-1.697 1.177-2.388 1.63-1.022.734-2.281 1.516-3.346 2.215-.086-2.32-.054-4.746-.055-7.075" style="stroke-width:.264583" transform="translate(30.772 -29.006)"/><path fill="#212229" d="M-11.537 51.74c2.3-.05 23.875-.113 24.316.132.156.335.076.502-.001.868l-16.742-.032c-1.336.001-6.332.117-7.392-.05-.236-.331-.156-.433-.181-.917M-11.538 60.37l15.458-.017c1.21 0 8.225-.192 8.787.343.025.416.065.217-.172.604-3.97.223-9.54.006-13.673.012l-6.361.02c-1.028.004-2.912.07-3.841-.115-.263-.354-.175-.311-.198-.847M-11.164 78.113c2.882-.063 22.817-.19 23.785.172.287.368.23.166.187.623l-.246.202q-8.274.035-16.549-.1c-2.222-.022-4.58.049-6.802-.079-.497-.028-.566-.11-.801-.403.168-.378.035-.24.426-.415M-11.65 69.34c1.259-.118 3.135-.045 4.464-.039l7.262.02 7.786-.013c1.451-.004 3.294-.061 4.69.06.345.263.25.302.379.856-4.916.16-10.25-.038-15.22.027-1.758.023-7.292.11-8.853-.073-.432-.306-.299-.225-.509-.837" style="stroke-width:.264583" transform="translate(30.772 -29.006)"/><path fill="#171717" d="M46.149 99.582c10.901-1.034 20.572 6.977 21.585 17.88 1.013 10.905-7.016 20.56-17.922 21.552-10.876.99-20.5-7.013-21.51-17.887s6.974-20.514 17.847-21.545" style="stroke-width:.264583" transform="translate(30.772 -29.006)"/><path fill="#212229" d="M45.94 103.51c8.776-1.153 16.815 5.05 17.927 13.83s-5.128 16.792-13.914 17.863c-8.729 1.065-16.676-5.126-17.78-13.85s5.05-16.7 13.768-17.844" style="stroke-width:.264583" transform="translate(30.772 -29.006)"/><path fill="#fff" d="M46.04 104.453c8.22-1.079 15.757 4.718 16.824 12.941s-4.74 15.752-12.964 16.807c-8.208 1.054-15.719-4.739-16.784-12.946-1.065-8.206 4.718-15.725 12.923-16.802" style="stroke-width:.264583" transform="translate(30.772 -29.006)"/><path fill="#352524" d="M46.72 109.855a9.513 9.513 0 1 1 2.557 18.854 9.513 9.513 0 0 1-2.556-18.854" style="stroke-width:.264583" transform="translate(30.772 -29.006)"/><path fill="#ec3737" d="M46.656 110.923a8.481 8.481 0 1 1 2.716 16.744 8.481 8.481 0 0 1-2.716-16.744" style="stroke-width:.264583" transform="translate(30.772 -29.006)"/><path fill="#fff" d="M70.185 134.365c1.49.921 6.617 6.356 8.122 7.745 1.611 1.646 3.351 3.17 4.944 4.83.24.33.955 1.006 1.073 1.37 1.247 3.834-1.38 5.704-4.727 5.486-1.984-.821-4.018-3.211-5.55-4.777-2.97-3.034-6.389-5.976-9.194-9.14q2.599-2.823 5.332-5.514M48.037 31.021c1.09.635 11.545 11.875 12.612 13.305-13.454.737-12.797-.796-12.612-13.305" style="stroke-width:.264583" transform="translate(30.772 -29.006)"/><path fill="#171717" d="M64.682 131.71c.542.187 2.652 2.333 3.598 2.985l-2.722 2.785-.082.023c-.673-.227-2.756-2.465-3.318-3.087.73-.849 1.741-1.844 2.524-2.706" style="stroke-width:.264583" transform="translate(30.772 -29.006)"/></svg>